<?xml version="1.0" encoding="UTF-8"?>
<svg id="Layer_1" xmlns="http://www.w3.org/2000/svg" version="1.1" viewBox="0 0 640 169.19">
  <!-- Generator: Adobe Illustrator 30.1.0, SVG Export Plug-In . SVG Version: 2.1.1 Build 89)  -->
  <defs>
    <style>
      .st0 {
        fill: #010101;
      }
    </style>
  </defs>
  <g id="shape-fdf5c15b-49e5-807c-8007-13ecba84b10d">
    <g id="shape-fdf5c15b-49e5-807c-8007-13eb8185ecb1">
      <g id="fills-fdf5c15b-49e5-807c-8007-13eb8185ecb1">
        <path class="st0" d="M149.21,151.39c-1.08-.9-2.38-1.68-3.92-2.34-1.54-.66-3.3-1.21-5.27-1.64-1.4-.29-2.6-.62-3.6-.99-1-.38-1.8-.81-2.39-1.29-.59-.48-1.03-1.04-1.32-1.67-.29-.63-.43-1.32-.43-2.07,0-1.04.3-1.94.89-2.71.59-.77,1.41-1.37,2.45-1.8,1.04-.43,2.26-.65,3.66-.65,1.22,0,2.37.2,3.44.62,1.08.41,2.06,1.02,2.96,1.83.89.81,1.7,1.8,2.42,2.98l4.09-4.03c-.82-1.43-1.86-2.64-3.12-3.63-1.25-.99-2.69-1.73-4.3-2.23-1.61-.5-3.39-.75-5.32-.75-1.83,0-3.53.26-5.11.78-1.58.52-2.95,1.26-4.11,2.2-1.17.95-2.08,2.07-2.74,3.36-.66,1.29-.99,2.69-.99,4.19s.23,2.93.7,4.17c.47,1.24,1.18,2.34,2.15,3.31.97.97,2.17,1.77,3.6,2.42,1.43.65,3.12,1.16,5.05,1.56,1.22.22,2.29.48,3.23.78.93.31,1.75.65,2.45,1.05.7.4,1.27.83,1.72,1.29.45.47.78.99,1,1.56.22.57.32,1.18.32,1.83,0,.97-.32,1.83-.97,2.58-.64.75-1.52,1.35-2.63,1.77-1.11.43-2.35.65-3.71.65-2.22,0-4.14-.48-5.75-1.45-1.61-.97-3.3-2.71-5.05-5.21l-3.98,4.57c1.11,1.61,2.37,2.97,3.79,4.06,1.41,1.09,2.99,1.91,4.73,2.45,1.74.54,3.63.81,5.67.81,2.83,0,5.27-.48,7.31-1.42,2.04-.95,3.62-2.3,4.73-4.06,1.11-1.75,1.67-3.83,1.67-6.24,0-1.29-.28-2.49-.83-3.6-.56-1.11-1.37-2.11-2.45-3.01"/>
      </g>
    </g>
    <g id="shape-fdf5c15b-49e5-807c-8007-13eb8185ecb2">
      <g id="fills-fdf5c15b-49e5-807c-8007-13eb8185ecb2">
        <path class="st0" d="M202.04,155.82c-.63,1.67-1.5,3.12-2.61,4.36-1.11,1.24-2.43,2.2-3.95,2.88-1.52.68-3.2,1.02-5.03,1.02s-3.5-.34-5.03-1.02c-1.52-.68-2.85-1.63-3.98-2.85-1.13-1.22-2-2.67-2.61-4.36-.61-1.68-.92-3.51-.92-5.49s.3-3.84.92-5.51c.61-1.67,1.48-3.11,2.61-4.33,1.13-1.22,2.45-2.17,3.98-2.85,1.52-.68,3.2-1.02,5.03-1.02s3.5.34,5.03,1.02c1.52.68,2.84,1.64,3.95,2.88,1.11,1.24,1.98,2.69,2.61,4.36.63,1.67.94,3.49.94,5.46s-.31,3.79-.94,5.46M203.65,136.55c-1.67-1.76-3.62-3.12-5.86-4.09-2.24-.97-4.69-1.45-7.34-1.45s-5.1.48-7.34,1.45c-2.24.97-4.19,2.32-5.86,4.06-1.67,1.74-2.96,3.78-3.87,6.13-.91,2.35-1.37,4.92-1.37,7.71s.46,5.37,1.37,7.72c.91,2.35,2.2,4.39,3.87,6.13,1.67,1.74,3.62,3.09,5.86,4.06,2.24.97,4.69,1.45,7.34,1.45s5.1-.48,7.34-1.45c2.24-.97,4.19-2.33,5.86-4.09,1.67-1.76,2.96-3.81,3.87-6.16.91-2.35,1.37-4.9,1.37-7.66s-.46-5.31-1.37-7.66c-.91-2.35-2.21-4.4-3.87-6.16"/>
      </g>
    </g>
    <g id="shape-fdf5c15b-49e5-807c-8007-13eb8185ecb3">
      <g id="fills-fdf5c15b-49e5-807c-8007-13eb8185ecb3">
        <path class="st0" d="M255.13,131.55h-24.41v37.63h5.81v-16.02h16.18v-5.59h-16.18v-10.43h18.6v-5.59Z"/>
      </g>
    </g>
    <g id="shape-fdf5c15b-49e5-807c-8007-13eb8185ecb4">
      <g id="fills-fdf5c15b-49e5-807c-8007-13eb8185ecb4">
        <path class="st0" d="M274.49,137.14h10.54v32.04h5.81v-32.04h10.86v-5.59h-27.21v5.59Z"/>
      </g>
    </g>
    <g id="shape-fdf5c15b-49e5-807c-8007-13eb8185ecb5">
      <g id="fills-fdf5c15b-49e5-807c-8007-13eb8185ecb5">
        <path class="st0" d="M356.97,154.94c-.29.93-.51,1.67-.67,2.2-.16.54-.28.98-.35,1.32-.07.34-.14.69-.21,1.05-.02.07-.03.17-.05.26-.19-.72-.39-1.45-.62-2.17-.27-.84-.58-1.69-.94-2.55l-6.56-16.99h-5.22l-6.77,16.99c-.14.39-.31.87-.48,1.42-.18.56-.42,1.35-.73,2.39-.1.35-.22.75-.35,1.2-.04-.2-.07-.39-.11-.6-.14-.79-.3-1.57-.48-2.34-.18-.77-.38-1.44-.59-2.02l-7.26-23.55h-6.18l11.99,37.63h3.92l9.38-22.86,9.66,22.86h4.03l11.99-37.63h-6.24l-7.15,23.39Z"/>
      </g>
    </g>
    <g id="shape-fdf5c15b-49e5-807c-8007-13eb8185ecb6">
      <g id="fills-fdf5c15b-49e5-807c-8007-13eb8185ecb6">
        <path class="st0" d="M396.42,154.24l2.86-7.53c.22-.61.48-1.37.81-2.29.32-.91.65-1.89.99-2.93.34-1.04.66-2.02.97-2.96.05-.17.1-.3.15-.46.01.04.02.07.04.11.32.99.68,2.07,1.07,3.25.39,1.18.74,2.26,1.05,3.23.3.97.51,1.58.62,1.83l2.94,7.74h-11.5ZM399.39,131.55l-14.57,37.63h5.91l3.56-9.35h15.74l3.55,9.35h6.18l-14.46-37.63h-5.91Z"/>
      </g>
    </g>
    <g id="shape-fdf5c15b-49e5-807c-8007-13eb8185ecb7">
      <g id="fills-fdf5c15b-49e5-807c-8007-13eb8185ecb7">
        <path class="st0" d="M446.16,137.14h9.25c1.33,0,2.52.27,3.58.81,1.06.54,1.88,1.28,2.47,2.23.59.95.89,2.05.89,3.31,0,1.11-.23,2.12-.7,3.04-.47.91-1.11,1.63-1.94,2.15-.83.52-1.76.78-2.8.78h-10.75v-12.31ZM462.35,153.46c1.79-1.06,3.23-2.46,4.3-4.22,1.08-1.75,1.61-3.66,1.61-5.7,0-2.26-.54-4.29-1.61-6.1-1.07-1.81-2.52-3.24-4.33-4.3-1.81-1.06-3.79-1.58-5.94-1.58h-16.02v37.63h5.81v-14.14h8.6l7.97,14.14,7.04.05-8.75-15.11c.45-.19.9-.41,1.33-.67"/>
      </g>
    </g>
    <g id="shape-fdf5c15b-49e5-807c-8007-13eb8185ecb8">
      <g id="fills-fdf5c15b-49e5-807c-8007-13eb8185ecb8">
        <path class="st0" d="M515.42,137.14v-5.59h-23.71v37.63h23.71v-5.59h-17.9v-10.91h14.95v-5.59h-14.95v-9.95h17.9Z"/>
      </g>
    </g>
  </g>
  <g id="shape-fdf5c15b-49e5-807c-8007-13ecafdfb1fc">
    <g id="shape-fdf5c15b-49e5-807c-8007-13eb8185ecb9">
      <g id="fills-fdf5c15b-49e5-807c-8007-13eb8185ecb9">
        <path class="st0" d="M29.99,31.02c2.29-2.29,4.96-4.06,8.03-5.31s6.33-1.88,9.78-1.88c2.76,0,5.35.39,7.77,1.17,2.42.78,4.64,1.88,6.67,3.3,2.03,1.43,3.95,3.09,5.76,4.99l13.47-15.41c-2.59-3.02-5.68-5.63-9.26-7.84-3.59-2.2-7.45-3.86-11.59-4.98-4.14-1.12-8.38-1.69-12.69-1.69-6.91,0-13.28,1.17-19.1,3.5-5.83,2.33-10.88,5.59-15.15,9.78-4.27,4.19-7.62,9.13-10.04,14.83C1.21,37.17,0,43.39,0,50.12s1.14,13.23,3.43,18.97c2.29,5.74,5.55,10.71,9.78,14.89,4.23,4.19,9.22,7.43,14.96,9.72,5.74,2.28,12.02,3.43,18.85,3.43,4.4,0,8.78-.54,13.15-1.62,4.36-1.08,8.33-2.57,11.92-4.47,3.58-1.9,6.45-4.06,8.61-6.48l-10.62-16.84c-1.64,1.73-3.52,3.26-5.63,4.6-2.12,1.34-4.43,2.4-6.93,3.17-2.51.78-5.14,1.17-7.9,1.17-4.06,0-7.75-.6-11.07-1.81-3.32-1.21-6.15-2.98-8.48-5.31-2.33-2.33-4.14-5.12-5.44-8.35-1.3-3.24-1.94-6.84-1.94-10.81s.65-7.73,1.94-11.01c1.29-3.28,3.09-6.06,5.37-8.35"/>
      </g>
    </g>
    <g id="shape-fdf5c15b-49e5-807c-8007-13eb8185ecba">
      <g id="fills-fdf5c15b-49e5-807c-8007-13eb8185ecba">
        <path class="st0" d="M137.3,70.58c-1.38,2.68-3.28,4.79-5.7,6.35-2.42,1.56-5.18,2.33-8.29,2.33s-5.89-.77-8.35-2.33c-2.46-1.55-4.38-3.67-5.76-6.35-1.38-2.68-2.03-5.74-1.94-9.2-.09-3.45.56-6.54,1.94-9.26,1.38-2.72,3.3-4.86,5.76-6.41,2.46-1.56,5.25-2.33,8.35-2.33s5.87.78,8.29,2.33c2.42,1.55,4.32,3.69,5.7,6.41,1.38,2.72,2.03,5.81,1.94,9.26.08,3.45-.56,6.52-1.94,9.2M142.41,30.3c-5.57-3.11-11.94-4.66-19.1-4.66s-13.54,1.55-19.1,4.66c-5.57,3.11-9.97,7.34-13.21,12.69-3.24,5.35-4.86,11.48-4.86,18.39s1.62,13.04,4.86,18.39c3.24,5.36,7.64,9.58,13.21,12.69,5.57,3.11,11.94,4.66,19.1,4.66s13.54-1.55,19.1-4.66c5.57-3.11,9.95-7.34,13.15-12.69,3.19-5.35,4.79-11.48,4.79-18.39s-1.6-13.04-4.79-18.39c-3.2-5.35-7.58-9.58-13.15-12.69"/>
      </g>
    </g>
    <g id="shape-fdf5c15b-49e5-807c-8007-13eb8185ecbb">
      <g id="fills-fdf5c15b-49e5-807c-8007-13eb8185ecbb">
        <path class="st0" d="M216.37,71.23c-1.25,2.77-3.04,4.92-5.37,6.48-2.33,1.56-5.1,2.33-8.29,2.33s-5.94-.78-8.22-2.33c-2.29-1.55-4.08-3.71-5.38-6.48-1.29-2.76-1.94-6-1.94-9.71s.65-7.08,1.94-9.84c1.3-2.76,3.09-4.92,5.38-6.48,2.29-1.55,5.03-2.33,8.22-2.33s5.96.78,8.29,2.33c2.33,1.56,4.12,3.71,5.37,6.48,1.25,2.77,1.88,6.05,1.88,9.84s-.63,6.95-1.88,9.71M217.73,33.8c-1-1.02-2.12-1.97-3.37-2.85-2.33-1.64-4.92-2.93-7.77-3.89-2.85-.95-5.83-1.42-8.94-1.42-6.05,0-11.4,1.55-16.06,4.66-4.66,3.11-8.33,7.36-11.01,12.76-2.68,5.4-4.01,11.55-4.01,18.46s1.34,13.06,4.01,18.46c2.68,5.4,6.33,9.63,10.95,12.69,4.62,3.07,9.91,4.6,15.87,4.6,3.19,0,6.24-.46,9.13-1.36,2.89-.9,5.46-2.11,7.71-3.63,1.75-1.18,3.24-2.5,4.49-3.97l.56,7.53h19.3V0h-20.85v33.8Z"/>
      </g>
    </g>
    <g id="shape-fdf5c15b-49e5-807c-8007-13eb8185ecbc">
      <g id="fills-fdf5c15b-49e5-807c-8007-13eb8185ecbc">
        <path class="st0" d="M269.93,50.83c1.21-2.55,3-4.49,5.38-5.83,2.37-1.34,5.25-2.01,8.61-2.01,2.42,0,4.58.48,6.48,1.42,1.9.95,3.43,2.27,4.6,3.95,1.17,1.68,1.83,3.61,2.01,5.76v.13h-28.22c.29-1.23.66-2.39,1.15-3.43M307.36,35.48c-2.94-3.11-6.41-5.52-10.43-7.25-4.01-1.73-8.44-2.59-13.28-2.59-5.1,0-9.78.89-14.05,2.65-4.27,1.77-7.97,4.28-11.07,7.51-3.11,3.24-5.53,7.06-7.25,11.46-1.73,4.4-2.59,9.24-2.59,14.51,0,6.82,1.55,12.89,4.66,18.2,3.11,5.31,7.47,9.5,13.08,12.56,5.61,3.07,12.22,4.6,19.82,4.6,3.11,0,6.24-.37,9.39-1.1,3.15-.73,6.24-1.83,9.26-3.3,3.02-1.47,5.87-3.37,8.55-5.7l-9.71-13.73c-2.68,2.07-5.16,3.54-7.45,4.4-2.29.86-4.9,1.3-7.84,1.3-4.23,0-7.88-.78-10.94-2.33-3.07-1.55-5.4-3.73-6.99-6.54-.74-1.29-1.28-2.7-1.68-4.21h47.21l.13-5.57c.17-5.01-.52-9.63-2.07-13.86-1.55-4.23-3.8-7.9-6.74-11.01"/>
      </g>
    </g>
    <g id="shape-fdf5c15b-49e5-807c-8007-13eb8185ecbd">
      <g id="fills-fdf5c15b-49e5-807c-8007-13eb8185ecbd">
        <path class="st0" d="M353.15,31.02c2.29-2.29,4.96-4.06,8.03-5.31,3.06-1.25,6.33-1.88,9.78-1.88,2.76,0,5.35.39,7.77,1.17,2.42.78,4.64,1.88,6.67,3.3,2.03,1.43,3.95,3.09,5.76,4.99l13.47-15.41c-2.59-3.02-5.68-5.63-9.26-7.84-3.58-2.2-7.45-3.86-11.59-4.98-4.14-1.12-8.38-1.69-12.69-1.69-6.91,0-13.28,1.17-19.1,3.5-5.83,2.33-10.88,5.59-15.16,9.78-4.27,4.19-7.62,9.13-10.04,14.83-2.42,5.7-3.63,11.92-3.63,18.65s1.14,13.23,3.43,18.97c2.29,5.74,5.55,10.71,9.78,14.89,4.23,4.19,9.22,7.43,14.96,9.72,5.74,2.28,12.02,3.43,18.85,3.43,4.4,0,8.78-.54,13.15-1.62,4.36-1.08,8.33-2.57,11.92-4.47,3.58-1.9,6.45-4.06,8.61-6.48l-10.62-16.84c-1.64,1.73-3.52,3.26-5.63,4.6-2.12,1.34-4.43,2.4-6.93,3.17-2.51.78-5.14,1.17-7.9,1.17-4.06,0-7.75-.6-11.07-1.81-3.33-1.21-6.15-2.98-8.48-5.31-2.33-2.33-4.14-5.12-5.44-8.35-1.3-3.24-1.94-6.84-1.94-10.81s.65-7.73,1.94-11.01c1.29-3.28,3.09-6.06,5.38-8.35"/>
      </g>
    </g>
    <g id="shape-fdf5c15b-49e5-807c-8007-13eb8185ecbe">
      <g id="fills-fdf5c15b-49e5-807c-8007-13eb8185ecbe">
        <path class="st0" d="M457.86,68.12c0,1.73-.3,3.3-.91,4.73-.6,1.43-1.45,2.68-2.53,3.76-1.08,1.08-2.38,1.92-3.89,2.53-1.51.6-3.17.91-4.99.91-2.42,0-4.49-.54-6.22-1.62-1.73-1.08-3.02-2.61-3.89-4.6-.86-1.98-1.29-4.36-1.29-7.12V27.07h-20.85v42.48c0,5.79.97,10.75,2.91,14.89,1.94,4.14,4.71,7.32,8.29,9.52,3.58,2.2,7.92,3.3,13.02,3.3,3.8,0,7.38-.76,10.75-2.26,3.37-1.51,6.26-3.54,8.68-6.09.59-.62,1.13-1.26,1.63-1.92l.57,8.85h19.56V27.07h-20.85v41.06Z"/>
      </g>
    </g>
    <g id="shape-fdf5c15b-49e5-807c-8007-13eb8185ecbf">
      <g id="fills-fdf5c15b-49e5-807c-8007-13eb8185ecbf">
        <path class="st0" d="M544.06,71.04c-1.25,2.72-3.04,4.86-5.38,6.41-2.33,1.55-5.05,2.33-8.16,2.33s-5.96-.78-8.29-2.33c-2.33-1.55-4.14-3.69-5.44-6.41-1.29-2.72-1.94-5.93-1.94-9.65s.65-6.82,1.94-9.58c1.29-2.76,3.11-4.88,5.44-6.35,2.33-1.47,5.09-2.2,8.29-2.2s5.83.73,8.16,2.2c2.33,1.47,4.12,3.58,5.38,6.35,1.25,2.76,1.88,5.96,1.88,9.58s-.63,6.93-1.88,9.65M551.32,30.24c-4.62-3.06-9.91-4.6-15.87-4.6-2.85,0-5.61.43-8.29,1.29-2.68.86-5.14,2.05-7.38,3.56-1.63,1.1-3.05,2.31-4.27,3.64V0h-20.85v95.71h19.3l.54-7.35c1.35,1.53,2.96,2.9,4.84,4.11,2.29,1.47,4.86,2.64,7.71,3.5,2.85.86,5.83,1.3,8.94,1.3,5.78,0,10.97-1.53,15.54-4.6,4.58-3.07,8.18-7.3,10.82-12.69,2.63-5.39,3.95-11.59,3.95-18.58s-1.34-13.06-4.02-18.46c-2.68-5.39-6.33-9.62-10.94-12.69"/>
      </g>
    </g>
    <g id="shape-fdf5c15b-49e5-807c-8007-13eb8185ecc0">
      <g id="fills-fdf5c15b-49e5-807c-8007-13eb8185ecc0">
        <path class="st0" d="M593.73,50.83c1.21-2.55,3-4.49,5.38-5.83,2.37-1.34,5.25-2.01,8.61-2.01,2.42,0,4.58.48,6.48,1.42,1.9.95,3.43,2.27,4.6,3.95,1.17,1.68,1.83,3.61,2.01,5.76v.13h-28.22c.29-1.23.66-2.39,1.15-3.43M639.97,60.35c.17-5.01-.52-9.63-2.07-13.86-1.55-4.23-3.8-7.9-6.74-11.01-2.94-3.11-6.41-5.52-10.43-7.25-4.01-1.73-8.44-2.59-13.28-2.59-5.1,0-9.78.89-14.05,2.65-4.27,1.77-7.97,4.28-11.07,7.51-3.11,3.24-5.53,7.06-7.25,11.46-1.73,4.4-2.59,9.24-2.59,14.51,0,6.82,1.55,12.89,4.66,18.2,3.11,5.31,7.47,9.5,13.08,12.56,5.61,3.07,12.22,4.6,19.82,4.6,3.11,0,6.24-.37,9.39-1.1,3.15-.73,6.24-1.83,9.26-3.3,3.02-1.47,5.87-3.37,8.55-5.7l-9.71-13.73c-2.68,2.07-5.16,3.54-7.45,4.4-2.29.86-4.9,1.3-7.84,1.3-4.23,0-7.88-.78-10.94-2.33-3.07-1.55-5.4-3.73-6.99-6.54-.74-1.29-1.28-2.7-1.68-4.21h47.21l.13-5.57Z"/>
      </g>
    </g>
  </g>
</svg>