<?xml version="1.0" encoding="UTF-8"?>
<svg id="Layer_1" data-name="Layer 1" xmlns="http://www.w3.org/2000/svg" viewBox="0 0 595.28 802.94">
  <defs>
    <style>
      .cls-1 {
        fill: #e45546;
      }
    </style>
  </defs>
  <g id="shape-fdf5c15b-49e5-807c-8007-13eb8185ecb0">
    <g id="fills-fdf5c15b-49e5-807c-8007-13eb8185ecb0">
      <path class="cls-1" d="M575.06,433.42c-13.48-30.27-32.2-56.65-56.16-79.07-23.98-22.42-51.3-39.94-81.98-52.69-20.64-8.54-42.38-13.94-65.03-16.74l200.92-215.39L538,0H55.03v160.34l251.94,5.18-166.58,181.01,41.57,111.01c14.96-7.47,29.55-13.47,43.8-17.96,14.23-4.46,27.68-8.01,40.43-10.65,12.73-2.61,24.71-3.92,35.95-3.92,24.71,0,45.86,4.15,63.46,12.34,17.56,8.23,31.05,20.38,40.44,36.46,9.33,16.08,14.02,35.7,14.02,58.85,0,21.7-5.44,41.14-16.27,58.35-10.87,17.18-25.11,30.46-42.68,39.82-17.63,9.33-36.89,13.97-57.86,13.97s-40.98-3.52-60.09-10.65c-19.08-7.1-37.44-18.5-55.03-34.17-17.6-15.73-34.65-36.65-51.1-62.81L0,625.76c38.92,65.04,82.17,110.85,129.72,137.36,47.54,26.54,103.13,39.82,166.78,39.82,55.41,0,105.76-11.96,151.08-35.89,45.29-23.9,81.23-56.24,107.83-97,26.57-40.73,39.87-87.27,39.87-139.62,0-34.39-6.74-66.73-20.22-97"/>
    </g>
  </g>
</svg>