<svg width="800" xmlns="http://www.w3.org/2000/svg" height="800" id="screenshot-fdf5c15b-49e5-807c-8007-13eb8185eca8" viewBox="0 0 800 800" xmlns:xlink="http://www.w3.org/1999/xlink" fill="none" version="1.1"><g id="shape-fdf5c15b-49e5-807c-8007-13eb8185eca8" xml:space="preserve" rx="0" ry="0" style="fill: rgb(0, 0, 0);"><g id="shape-fdf5c15b-49e5-807c-8007-13eb8185ecae" style="display: none;"><g class="fills" id="fills-fdf5c15b-49e5-807c-8007-13eb8185ecae"><rect rx="0" ry="0" x="0" y="0" transform="matrix(1.000000, 0.000000, 0.000000, 1.000000, 0.000000, 0.000000)" width="800" height="800" style="fill-rule: evenodd; clip-rule: evenodd; stroke-linejoin: round; stroke-miterlimit: 2; fill: rgb(246, 246, 246);"/></g></g><g id="shape-fdf5c15b-49e5-807c-8007-13ecdcf7a543" rx="0" ry="0"><g id="shape-fdf5c15b-49e5-807c-8007-13ecba84b10d" rx="0" ry="0"><g id="shape-fdf5c15b-49e5-807c-8007-13eb8185ecb1"><g class="fills" id="fills-fdf5c15b-49e5-807c-8007-13eb8185ecb1"><path d="M229.209716796875,645.73681640625C228.1336212158203,644.8411865234375,226.8256378173828,644.0607299804688,225.2848358154297,643.3972778320312C223.74290466308594,642.735595703125,221.9868927001953,642.1873168945312,220.01565551757812,641.7577514648438C218.61720275878906,641.4708251953125,217.41636657714844,641.1400146484375,216.4131622314453,640.7634887695312C215.40858459472656,640.386962890625,214.61236572265625,639.9574584960938,214.0206298828125,639.4730834960938C213.4291229248047,638.9887084960938,212.98931884765625,638.43310546875,212.70350646972656,637.80615234375C212.41517639160156,637.1792602539062,212.27284240722656,636.4883422851562,212.27284240722656,635.7353515625C212.27284240722656,634.6971435546875,212.56825256347656,633.7924194335938,213.15975952148438,633.0211181640625C213.75149536132812,632.2516479492188,214.56643676757812,631.6503295898438,215.606201171875,631.2207641601562C216.64596557617188,630.7894287109375,217.86439514160156,630.5755615234375,219.26284790039062,630.5755615234375C220.48036193847656,630.5755615234375,221.62818908691406,630.7802734375,222.70428466796875,631.1915283203125C223.7794647216797,631.6046142578125,224.76393127441406,632.215087890625,225.66136169433594,633.0211181640625C226.5562744140625,633.8289794921875,227.36322021484375,634.8214721679688,228.0806121826172,636.005859375L232.1667938232422,631.9719848632812C231.3422393798828,630.5390625,230.30247497558594,629.3290405273438,229.04864501953125,628.3438720703125C227.7936553955078,627.3587646484375,226.36001586914062,626.6148681640625,224.7474822998047,626.114013671875C223.13357543945312,625.6113891601562,221.35997009277344,625.3610229492188,219.42391967773438,625.3610229492188C217.59640502929688,625.3610229492188,215.89315795898438,625.6205444335938,214.3160400390625,626.1396484375C212.7386932373047,626.6605224609375,211.3671875,627.3953247070312,210.20291137695312,628.3438720703125C209.03726196289062,629.2943115234375,208.12338256835938,630.4147338867188,207.4599151611328,631.7033081054688C206.7978057861328,632.9937133789062,206.46607971191406,634.3919067382812,206.46607971191406,635.8961791992188C206.46607971191406,637.4387817382812,206.69911193847656,638.827880859375,207.16473388671875,640.0634765625C207.63058471679688,641.3008422851562,208.3479766845703,642.4029541015625,209.3159942626953,643.3717041015625C210.2840118408203,644.3385620117188,211.48370361328125,645.1445922851562,212.91873168945312,645.789794921875C214.35122680664062,646.4349975585938,216.03663635253906,646.9541015625,217.97154235839844,647.348876953125C219.1911163330078,647.5645751953125,220.26629638671875,647.8240966796875,221.19775390625,648.1293334960938C222.13037109375,648.4345703125,222.94554138183594,648.7836303710938,223.6442108154297,649.1766357421875C224.34400939941406,649.5732421875,224.91677856445312,650.0027465820312,225.36480712890625,650.467041015625C225.8130645751953,650.93310546875,226.14480590820312,651.4539794921875,226.36001586914062,652.0260620117188C226.5752410888672,652.5999755859375,226.68215942382812,653.2086181640625,226.68215942382812,653.8556518554688C226.68215942382812,654.8225708007812,226.36001586914062,655.6815795898438,225.71414184570312,656.4346313476562C225.0696258544922,657.1876831054688,224.191162109375,657.7798461914062,223.07965087890625,658.2093505859375C221.96815490722656,658.638916015625,220.73190307617188,658.8545532226562,219.37001037597656,658.8545532226562C217.14700317382812,658.8545532226562,215.22991943359375,658.3702392578125,213.6173858642578,657.4033203125C212.00485229492188,656.4346313476562,210.31919860839844,654.6964111328125,208.5631866455078,652.1887817382812L204.5843963623047,656.7581176757812C205.6945343017578,658.3702392578125,206.95887756347656,659.724609375,208.37515258789062,660.8175659179688C209.79006958007812,661.9105834960938,211.3671875,662.7257690429688,213.10675048828125,663.2631225585938C214.8451690673828,663.8004760742188,216.7353057861328,664.0691528320312,218.7782745361328,664.0691528320312C221.610595703125,664.0691528320312,224.048828125,663.5939331054688,226.091796875,662.6453247070312C228.1336212158203,661.6967163085938,229.71096801757812,660.3423461914062,230.82225036621094,658.5858764648438C231.93374633789062,656.8312377929688,232.4900665283203,654.7512817382812,232.4900665283203,652.349609375C232.4900665283203,651.0592041015625,232.21133422851562,649.8583984375,231.65615844726562,648.7471313476562C231.09983825683594,647.6376342773438,230.28488159179688,646.6323852539062,229.209716796875,645.73681640625" style="fill-rule: nonzero; clip-rule: evenodd; stroke-linejoin: round; stroke-miterlimit: 2;"/></g></g><g id="shape-fdf5c15b-49e5-807c-8007-13eb8185ecb2"><g class="fills" id="fills-fdf5c15b-49e5-807c-8007-13eb8185ecb2"><path d="M282.0351867675781,650.1708984375C281.4071044921875,651.8378295898438,280.53802490234375,653.2890625,279.4276428222656,654.5264282226562C278.316162109375,655.7620239257812,276.9988098144531,656.7215576171875,275.4756164550781,657.4014892578125C273.95263671875,658.083251953125,272.2765808105469,658.4232177734375,270.4488220214844,658.4232177734375C268.6197204589844,658.4232177734375,266.9438781738281,658.083251953125,265.42181396484375,657.4014892578125C263.8974914550781,656.7215576171875,262.5718994140625,655.7711791992188,261.44281005859375,654.5538940429688C260.313720703125,653.3347778320312,259.44439697265625,651.883544921875,258.8352966308594,650.1983642578125C258.2248229980469,648.5149536132812,257.9200439453125,646.6854248046875,257.9200439453125,644.7132568359375C257.9200439453125,642.7081909179688,258.2248229980469,640.871337890625,258.8352966308594,639.2025756835938C259.44439697265625,637.53564453125,260.313720703125,636.0953979492188,261.44281005859375,634.8744506835938C262.5718994140625,633.6571655273438,263.8974914550781,632.7067260742188,265.42181396484375,632.0267944335938C266.9438781738281,631.3450927734375,268.6197204589844,631.005126953125,270.4488220214844,631.005126953125C272.2765808105469,631.005126953125,273.95263671875,631.3450927734375,275.4756164550781,632.0267944335938C276.9988098144531,632.7067260742188,278.316162109375,633.6663208007812,279.4276428222656,634.90185546875C280.53802490234375,636.1392822265625,281.4071044921875,637.5905151367188,282.0351867675781,639.2573852539062C282.6620788574219,640.92431640625,282.9762268066406,642.742919921875,282.9762268066406,644.7132568359375C282.9762268066406,646.6854248046875,282.6620788574219,648.5040283203125,282.0351867675781,650.1708984375M283.64886474609375,630.8972778320312C281.98101806640625,629.1408081054688,280.0276184082031,627.7791137695312,277.7881774902344,626.8104248046875C275.5473327636719,625.8417358398438,273.10089111328125,625.3591918945312,270.4488220214844,625.3591918945312C267.7953796386719,625.3591918945312,265.34893798828125,625.8417358398438,263.1094970703125,626.8104248046875C260.868896484375,627.7791137695312,258.9152526855469,629.1316528320312,257.2485656738281,630.869873046875C255.58189392089844,632.6080322265625,254.29173278808594,634.6514892578125,253.3778533935547,636.998291015625C252.46397399902344,639.3469848632812,252.00636291503906,641.9186401367188,252.00636291503906,644.7132568359375C252.00636291503906,647.5097045898438,252.46397399902344,650.0813598632812,253.3778533935547,652.4300537109375C254.29173278808594,654.77685546875,255.58189392089844,656.8203125,257.2485656738281,658.5584716796875C258.9152526855469,660.2966918945312,260.868896484375,661.6492309570312,263.1094970703125,662.617919921875C265.34893798828125,663.5866088867188,267.7953796386719,664.0691528320312,270.4488220214844,664.0691528320312C273.10089111328125,664.0691528320312,275.5473327636719,663.5866088867188,277.7881774902344,662.617919921875C280.0276184082031,661.6492309570312,281.98101806640625,660.2875366210938,283.64886474609375,658.5310668945312C285.31439208984375,656.7745971679688,286.6056823730469,654.723876953125,287.5195617675781,652.3751831054688C288.4336853027344,650.0283813476562,288.8910827636719,647.4749755859375,288.8910827636719,644.7132568359375C288.8910827636719,641.9552001953125,288.4336853027344,639.3999633789062,287.5195617675781,637.0531616210938C286.6056823730469,634.706298828125,285.31439208984375,632.6537475585938,283.64886474609375,630.8972778320312" style="fill-rule: nonzero; clip-rule: evenodd; stroke-linejoin: round; stroke-miterlimit: 2;"/></g></g><g id="shape-fdf5c15b-49e5-807c-8007-13eb8185ecb3"><g class="fills" id="fills-fdf5c15b-49e5-807c-8007-13eb8185ecb3"><path d="M335.1300048828125,625.8983764648438L310.7208251953125,625.8983764648438L310.7208251953125,663.5317993164062L316.5264587402344,663.5317993164062L316.5264587402344,647.5115356445312L332.7105407714844,647.5115356445312L332.7105407714844,641.9204711914062L316.5264587402344,641.9204711914062L316.5264587402344,631.4894409179688L335.1300048828125,631.4894409179688L335.1300048828125,625.8983764648438Z" style="fill-rule: nonzero; clip-rule: evenodd; stroke-linejoin: round; stroke-miterlimit: 2;"/></g></g><g id="shape-fdf5c15b-49e5-807c-8007-13eb8185ecb4"><g class="fills" id="fills-fdf5c15b-49e5-807c-8007-13eb8185ecb4"><path d="M354.48614501953125,631.4894409179688L365.0247497558594,631.4894409179688L365.0247497558594,663.5317993164062L370.8315124511719,663.5317993164062L370.8315124511719,631.4894409179688L381.6922302246094,631.4894409179688L381.6922302246094,625.8983764648438L354.48614501953125,625.8983764648438L354.48614501953125,631.4894409179688Z" style="fill-rule: nonzero; clip-rule: evenodd; stroke-linejoin: round; stroke-miterlimit: 2;"/></g></g><g id="shape-fdf5c15b-49e5-807c-8007-13eb8185ecb5"><g class="fills" id="fills-fdf5c15b-49e5-807c-8007-13eb8185ecb5"><path d="M436.9653015136719,649.2844848632812C436.6772155761719,650.2166137695312,436.45489501953125,650.9513549804688,436.2936096191406,651.4887084960938C436.13140869140625,652.0260620117188,436.0148620605469,652.466552734375,435.9431457519531,652.8065185546875C435.87139892578125,653.146484375,435.7996520996094,653.49560546875,435.72906494140625,653.8556518554688C435.7126159667969,653.9306030273438,435.6961669921875,654.029296875,435.6797180175781,654.115234375C435.488037109375,653.3932495117188,435.2869873046875,652.66943359375,435.05645751953125,651.9456787109375C434.7870788574219,651.1030883789062,434.4729309082031,650.253173828125,434.1153869628906,649.3922729492188L427.5558166503906,632.4033203125L422.34075927734375,632.4033203125L415.56597900390625,649.3922729492188C415.4225158691406,649.787109375,415.2602844238281,650.2623291015625,415.0825500488281,650.8161010742188C414.9027404785156,651.3735961914062,414.66033935546875,652.1704711914062,414.35577392578125,653.2086181640625C414.25457763671875,653.5540771484375,414.1357727050781,653.9635009765625,414.00872802734375,654.4039916992188C413.97216796875,654.2029418945312,413.9369812011719,654.0092163085938,413.8992919921875,653.8008422851562C413.7558288574219,653.0130615234375,413.5947570800781,652.2326049804688,413.4147033691406,651.4613037109375C413.23492431640625,650.6918334960938,413.0384216308594,650.0192260742188,412.8243408203125,649.4453125L405.5649719238281,625.8983764648438L399.3819274902344,625.8983764648438L411.3717346191406,663.5317993164062L415.2966003417969,663.5317993164062L424.6743469238281,640.6702880859375L434.3305969238281,663.5317993164062L438.36260986328125,663.5317993164062L450.3536071777344,625.8983764648438L444.11639404296875,625.8983764648438L436.9653015136719,649.2844848632812Z" style="fill-rule: nonzero; clip-rule: evenodd; stroke-linejoin: round; stroke-miterlimit: 2;"/></g></g><g id="shape-fdf5c15b-49e5-807c-8007-13eb8185ecb6"><g class="fills" id="fills-fdf5c15b-49e5-807c-8007-13eb8185ecb6"><path d="M476.41644287109375,648.5862426757812L479.2791442871094,641.0595703125C479.4943542480469,640.4490966796875,479.76397705078125,639.6887817382812,480.0860900878906,638.7730712890625C480.4082336425781,637.8591918945312,480.739990234375,636.8831787109375,481.0810852050781,635.8432006835938C481.4210510253906,634.8049926757812,481.743408203125,633.81982421875,482.0491027832031,632.8876953125C482.103271484375,632.7195434570312,482.149169921875,632.5842895507812,482.2008056640625,632.428955078125C482.2138366699219,632.46728515625,482.22320556640625,632.4984130859375,482.23736572265625,632.53857421875C482.55950927734375,633.5237426757812,482.91705322265625,634.6076049804688,483.31231689453125,635.7901611328125C483.7064208984375,636.9727172851562,484.0557556152344,638.0474243164062,484.36029052734375,639.0161743164062C484.66485595703125,639.9830322265625,484.8706970214844,640.593505859375,484.97900390625,640.8438720703125L487.9148254394531,648.5862426757812L476.41644287109375,648.5862426757812ZM479.387451171875,625.8983764648438L464.8170471191406,663.5317993164062L470.7307434082031,663.5317993164062L474.28985595703125,654.1773681640625L490.03411865234375,654.1773681640625L493.58154296875,663.5317993164062L499.76458740234375,663.5317993164062L485.3011474609375,625.8983764648438L479.387451171875,625.8983764648438Z" style="fill-rule: nonzero; clip-rule: evenodd; stroke-linejoin: round; stroke-miterlimit: 2;"/></g></g><g id="shape-fdf5c15b-49e5-807c-8007-13eb8185ecb7"><g class="fills" id="fills-fdf5c15b-49e5-807c-8007-13eb8185ecb7"><path d="M526.163818359375,631.4894409179688L535.4119873046875,631.4894409179688C536.737548828125,631.4894409179688,537.9290161132812,631.7581176757812,538.9877319335938,632.2955322265625C540.0439453125,632.8328857421875,540.86962890625,633.57861328125,541.4611206054688,634.5271606445312C542.0528564453125,635.4776000976562,542.3478393554688,636.5797729492188,542.3478393554688,637.8336181640625C542.3478393554688,638.9448852539062,542.1138916015625,639.9574584960938,541.6494140625,640.871337890625C541.1824340820312,641.7852172851562,540.5379028320312,642.5016479492188,539.71337890625,643.0225830078125C538.8876953125,643.5416870117188,537.9561767578125,643.7993774414062,536.9176025390625,643.7993774414062L526.163818359375,643.7993774414062L526.163818359375,631.4894409179688ZM542.3478393554688,647.8057861328125C544.1392822265625,646.7493896484375,545.5742797851562,645.3419799804688,546.6492309570312,643.5855102539062C547.725341796875,641.8308715820312,548.2628784179688,639.9300537109375,548.2628784179688,637.8865966796875C548.2628784179688,635.6293334960938,547.725341796875,633.5950317382812,546.6492309570312,631.7837524414062C545.5742797851562,629.9742431640625,544.1310424804688,628.5413208007812,542.3208618164062,627.4830322265625C540.5107421875,626.4265747070312,538.5300903320312,625.8983764648438,536.3800048828125,625.8983764648438L520.3569946289062,625.8983764648438L520.3569946289062,663.5317993164062L526.163818359375,663.5317993164062L526.163818359375,649.3922729492188L534.7592163085938,649.3922729492188L542.724365234375,663.5317993164062L549.7673950195312,663.5866088867188L541.0188598632812,648.4747924804688C541.4727783203125,648.281005859375,541.916259765625,648.0598754882812,542.3478393554688,647.8057861328125" style="fill-rule: nonzero; clip-rule: evenodd; stroke-linejoin: round; stroke-miterlimit: 2;"/></g></g><g id="shape-fdf5c15b-49e5-807c-8007-13eb8185ecb8"><g class="fills" id="fills-fdf5c15b-49e5-807c-8007-13eb8185ecb8"><path d="M595.4157104492188,631.4894409179688L595.4157104492188,625.8983764648438L571.7052001953125,625.8983764648438L571.7052001953125,663.5317993164062L595.4157104492188,663.5317993164062L595.4157104492188,657.940673828125L577.5108032226562,657.940673828125L577.5108032226562,647.0271606445312L592.4586181640625,647.0271606445312L592.4586181640625,641.4360961914062L577.5108032226562,641.4360961914062L577.5108032226562,631.4894409179688L595.4157104492188,631.4894409179688Z" style="fill-rule: nonzero; clip-rule: evenodd; stroke-linejoin: round; stroke-miterlimit: 2;"/></g></g></g><g id="shape-fdf5c15b-49e5-807c-8007-13ecafdfb1fc" rx="0" ry="0"><g id="shape-fdf5c15b-49e5-807c-8007-13eb8185ecb9"><g class="fills" id="fills-fdf5c15b-49e5-807c-8007-13eb8185ecb9"><path d="M109.98531341552734,525.3635864257812C112.27183532714844,523.0770874023438,114.949951171875,521.3059692382812,118.01509094238281,520.053955078125C121.08023071289062,518.8019409179688,124.34048461914062,518.175048828125,127.79493713378906,518.175048828125C130.55667114257812,518.175048828125,133.1477508544922,518.5643310546875,135.56585693359375,519.3411254882812C137.981689453125,520.117919921875,140.20584106445312,521.21826171875,142.23715209960938,522.64208984375C144.2648162841797,524.0676879882812,146.18670654296875,525.73095703125,148.00051879882812,527.6300048828125L161.47105407714844,512.2183837890625C158.87998962402344,509.1971435546875,155.79132080078125,506.5834655761719,152.21006774902344,504.3809814453125C148.6249237060547,502.18035888671875,144.76242065429688,500.5189514160156,140.61753845214844,499.3966979980469C136.47265625,498.27447509765625,132.24095153808594,497.7115173339844,127.92424774169922,497.7115173339844C121.01443481445312,497.7115173339844,114.6476821899414,498.87762451171875,108.81966400146484,501.2080078125C102.99050903320312,503.54022216796875,97.93905639648438,506.80096435546875,93.66485595703125,510.98651123046875C89.39065551757812,515.1757202148438,86.04427337646484,520.117919921875,83.6272964477539,525.81689453125C81.20780944824219,531.5158081054688,80.0001220703125,537.7319946289062,80.0001220703125,544.4672241210938C80.0001220703125,551.3761596679688,81.14452362060547,557.7001953125,83.43218231201172,563.441162109375C85.7198486328125,569.1839599609375,88.98009490966797,574.1481323242188,93.21202850341797,578.3336791992188C97.44145202636719,582.5228881835938,102.42847442626953,585.7616577148438,108.1717300415039,588.0499877929688C113.9138412475586,590.334716796875,120.1944580078125,591.480712890625,127.0174560546875,591.480712890625C131.42120361328125,591.480712890625,135.8023223876953,590.939697265625,140.16357421875,589.861328125C144.523681640625,588.782958984375,148.49560546875,587.2933349609375,152.0805206298828,585.394287109375C155.66314697265625,583.4952392578125,158.53431701660156,581.336669921875,160.69357299804688,578.9185791015625L150.07273864746094,562.081298828125C148.4309539794922,563.8085327148438,146.55247497558594,565.3402099609375,144.4389190673828,566.6781005859375C142.32054138183594,568.017822265625,140.0130157470703,569.0742797851562,137.5089874267578,569.85107421875C135.00360107421875,570.6278686523438,132.37026977539062,571.0172119140625,129.60739135742188,571.0172119140625C125.54840087890625,571.0172119140625,121.85633850097656,570.4140014648438,118.5337142944336,569.2040405273438C115.20880126953125,567.9959106445312,112.38127136230469,566.2247924804688,110.04997253417969,563.8944091796875C107.71890258789062,561.5621948242188,105.90531921386719,558.778564453125,104.6103515625,555.539794921875C103.31401824951172,552.3027954101562,102.66722106933594,548.698486328125,102.66722106933594,544.726806640625C102.66722106933594,540.669189453125,103.31401824951172,536.9990234375,104.6103515625,533.7164306640625C105.90531921386719,530.4374389648438,107.6965103149414,527.6519165039062,109.98531341552734,525.3635864257812" style="fill-rule: nonzero; clip-rule: evenodd; stroke-linejoin: round; stroke-miterlimit: 2;"/></g></g><g id="shape-fdf5c15b-49e5-807c-8007-13eb8185ecba"><g class="fills" id="fills-fdf5c15b-49e5-807c-8007-13eb8185ecba"><path d="M217.29588317871094,564.9307861328125C215.91363525390625,567.6083984375,214.01300048828125,569.72314453125,211.59716796875,571.2767333984375C209.17906188964844,572.8321533203125,206.4161834716797,573.6071166992188,203.30763244628906,573.6071166992188C200.1988525390625,573.6071166992188,197.413818359375,572.8321533203125,194.9532012939453,571.2767333984375C192.49258422851562,569.72314453125,190.56956481933594,567.6083984375,189.18870544433594,564.9307861328125C187.8066864013672,562.2549438476562,187.15989685058594,559.1898193359375,187.24693298339844,555.7353515625C187.15989685058594,552.28271484375,187.8066864013672,549.19384765625,189.18870544433594,546.4759521484375C190.56956481933594,543.7544555664062,192.49258422851562,541.6177978515625,194.9532012939453,540.064208984375C197.413818359375,538.5087890625,200.1988525390625,537.7319946289062,203.30763244628906,537.7319946289062C206.4161834716797,537.7319946289062,209.17906188964844,538.5087890625,211.59716796875,540.064208984375C214.01300048828125,541.6177978515625,215.91363525390625,543.7544555664062,217.29588317871094,546.4759521484375C218.676513671875,549.19384765625,219.32354736328125,552.28271484375,219.23878479003906,555.7353515625C219.32354736328125,559.1898193359375,218.676513671875,562.2549438476562,217.29588317871094,564.9307861328125M222.41221618652344,524.6507568359375C216.8428192138672,521.5435791015625,210.47401428222656,519.989990234375,203.30763244628906,519.989990234375C196.13873291015625,519.989990234375,189.77220153808594,521.5435791015625,184.2030487060547,524.6507568359375C178.63250732421875,527.759765625,174.22900390625,531.9910278320312,170.9911346435547,537.344482421875C167.7530517578125,542.697998046875,166.1345672607422,548.8282470703125,166.1345672607422,555.7353515625C166.1345672607422,562.6442260742188,167.7530517578125,568.7745361328125,170.9911346435547,574.126220703125C174.22900390625,579.4815063476562,178.63250732421875,583.7109375,184.2030487060547,586.818115234375C189.77220153808594,589.9271240234375,196.13873291015625,591.480712890625,203.30763244628906,591.480712890625C210.47401428222656,591.480712890625,216.8428192138672,589.9271240234375,222.41221618652344,586.818115234375C227.9813690185547,583.7109375,232.3625030517578,579.4815063476562,235.55923461914062,574.126220703125C238.75254821777344,568.7745361328125,240.3511505126953,562.6442260742188,240.3511505126953,555.7353515625C240.3511505126953,548.8282470703125,238.75254821777344,542.697998046875,235.55923461914062,537.344482421875C232.3625030517578,531.9910278320312,227.9813690185547,527.759765625,222.41221618652344,524.6507568359375" style="fill-rule: nonzero; clip-rule: evenodd; stroke-linejoin: round; stroke-miterlimit: 2;"/></g></g><g id="shape-fdf5c15b-49e5-807c-8007-13eb8185ecbb"><g class="fills" id="fills-fdf5c15b-49e5-807c-8007-13eb8185ecbb"><path d="M296.3685607910156,565.5778198242188C295.1147155761719,568.3432006835938,293.32464599609375,570.4999389648438,290.99359130859375,572.0535278320312C288.6611328125,573.6089477539062,285.8971252441406,574.3857421875,282.7038269042969,574.3857421875C279.5082092285156,574.3857421875,276.76544189453125,573.6089477539062,274.47894287109375,572.0535278320312C272.19012451171875,570.4999389648438,270.39984130859375,568.3432006835938,269.103759765625,565.5778198242188C267.80877685546875,562.8160400390625,267.1608581542969,559.5791015625,267.1608581542969,555.8651123046875C267.1608581542969,552.0670166015625,267.80877685546875,548.7862548828125,269.103759765625,546.0208129882812C270.39984130859375,543.2590942382812,272.19012451171875,541.1005249023438,274.47894287109375,539.5451049804688C276.76544189453125,537.9915161132812,279.5082092285156,537.2147216796875,282.7038269042969,537.2147216796875C285.8971252441406,537.2147216796875,288.6611328125,537.9915161132812,290.99359130859375,539.5451049804688C293.32464599609375,541.1005249023438,295.1147155761719,543.2590942382812,296.3685607910156,546.0208129882812C297.61895751953125,548.7862548828125,298.2470397949219,552.0670166015625,298.2470397949219,555.8651123046875C298.2470397949219,559.5791015625,297.61895751953125,562.8160400390625,296.3685607910156,565.5778198242188M297.7283935546875,528.1491088867188C296.7261047363281,527.1328735351562,295.6111755371094,526.1787719726562,294.3609924316406,525.2996215820312C292.0296936035156,523.66015625,289.43975830078125,522.3660888671875,286.58984375,521.413818359375C283.7401428222656,520.4652099609375,280.76068115234375,519.989990234375,277.6521301269531,519.989990234375C271.60662841796875,519.989990234375,266.2538146972656,521.5435791015625,261.5914611816406,524.6507568359375C256.9293212890625,527.759765625,253.25714111328125,532.0147705078125,250.58131408691406,537.408447265625C247.90457153320312,542.8058471679688,246.56710815429688,548.9580078125,246.56710815429688,555.8651123046875C246.56710815429688,562.7740478515625,247.90457153320312,568.9262084960938,250.58131408691406,574.32177734375C253.25714111328125,579.71728515625,256.90692138671875,583.9485473632812,261.52679443359375,587.013671875C266.1446228027344,590.0787963867188,271.43505859375,591.6123046875,277.3932800292969,591.6123046875C280.5868225097656,591.6123046875,283.6307067871094,591.1571655273438,286.5251770019531,590.2506103515625C289.4173889160156,589.3458862304688,291.98492431640625,588.1359252929688,294.2314453125,586.6243896484375C295.979248046875,585.4490966796875,297.4718322753906,584.1240234375,298.723388671875,582.6581420898438L299.28314208984375,590.1866455078125L318.5816955566406,590.1866455078125L318.5816955566406,494.34661865234375L297.7283935546875,494.34661865234375L297.7283935546875,528.1491088867188Z" style="fill-rule: nonzero; clip-rule: evenodd; stroke-linejoin: round; stroke-miterlimit: 2;"/></g></g><g id="shape-fdf5c15b-49e5-807c-8007-13eb8185ecbc"><g class="fills" id="fills-fdf5c15b-49e5-807c-8007-13eb8185ecbc"><path d="M349.9267272949219,545.1800537109375C351.1346435546875,542.6322021484375,352.92608642578125,540.6911010742188,355.3019104003906,539.3495483398438C357.67547607421875,538.013427734375,360.5475769042969,537.344482421875,363.91497802734375,537.344482421875C366.3319396972656,537.344482421875,368.491455078125,537.8197021484375,370.39208984375,538.768310546875C372.2892761230469,539.7205810546875,373.8243713378906,541.0347290039062,374.9897766113281,542.7180786132812C376.1554260253906,544.4014282226562,376.823486328125,546.32421875,376.99755859375,548.4810180664062L376.99755859375,548.6107788085938L348.7752380371094,548.6107788085938C349.0669860839844,547.3788452148438,349.4327697753906,546.21826171875,349.9267272949219,545.1800537109375M387.3584289550781,529.8306274414062C384.42144775390625,526.7234497070312,380.9482727050781,524.30712890625,376.9317626953125,522.578125C372.9173583984375,520.8527221679688,368.491455078125,519.9881591796875,363.6563415527344,519.9881591796875C358.55987548828125,519.9881591796875,353.8776550292969,520.8746337890625,349.60321044921875,522.64208984375C345.3290100097656,524.4131469726562,341.6371765136719,526.9171752929688,338.5284118652344,530.1559448242188C335.41986083984375,533.3928833007812,333.0017395019531,537.212890625,331.27496337890625,541.615966796875C329.54730224609375,546.0208129882812,328.68505859375,550.8570556640625,328.68505859375,556.122802734375C328.68505859375,562.94580078125,330.2400207519531,569.0103149414062,333.347412109375,574.3199462890625C336.4562072753906,579.6314086914062,340.8149108886719,583.8187866210938,346.4300231933594,586.882080078125C352.0416564941406,589.9490356445312,358.6480712890625,591.480712890625,366.24603271484375,591.480712890625C369.35595703125,591.480712890625,372.4834899902344,591.1133422851562,375.6365966796875,590.38037109375C378.7876281738281,589.6474609375,381.8740234375,588.5471801757812,384.8977966308594,587.07763671875C387.9195251464844,585.6099853515625,390.76947021484375,583.7109375,393.4461975097656,581.3787231445312L383.7323913574219,567.6504516601562C381.0540466308594,569.7213134765625,378.5712585449219,571.1907958984375,376.2847595214844,572.0535278320312C373.9959411621094,572.9180297851562,371.3836364746094,573.3494262695312,368.4480285644531,573.3494262695312C364.2172546386719,573.3494262695312,360.56768798828125,572.5725708007812,357.5036926269531,571.0172119140625C354.4374084472656,569.463623046875,352.1061096191406,567.2830810546875,350.51025390625,564.4756469726562C349.7727355957031,563.1834106445312,349.2257995605469,561.7723999023438,348.8282470703125,560.2681884765625L396.0375061035156,560.2681884765625L396.1656799316406,554.6990356445312C396.33837890625,549.6928100585938,395.648193359375,545.072265625,394.0943603515625,540.8410034179688C392.5405578613281,536.611572265625,390.29425048828125,532.9396362304688,387.3584289550781,529.8306274414062" style="fill-rule: nonzero; clip-rule: evenodd; stroke-linejoin: round; stroke-miterlimit: 2;"/></g></g><g id="shape-fdf5c15b-49e5-807c-8007-13eb8185ecbd"><g class="fills" id="fills-fdf5c15b-49e5-807c-8007-13eb8185ecbd"><path d="M433.14569091796875,525.3635864257812C435.43218994140625,523.0770874023438,438.1103210449219,521.3059692382812,441.1754455566406,520.053955078125C444.2403564453125,518.8019409179688,447.5008544921875,518.175048828125,450.9552917480469,518.175048828125C453.716796875,518.175048828125,456.30810546875,518.5643310546875,458.7262268066406,519.3411254882812C461.1420593261719,520.117919921875,463.3661804199219,521.21826171875,465.39752197265625,522.64208984375C467.4251708984375,524.0676879882812,469.3470458984375,525.73095703125,471.16064453125,527.6300048828125L484.63140869140625,512.2183837890625C482.04034423828125,509.1971435546875,478.95166015625,506.5834655761719,475.37017822265625,504.3809814453125C471.7852783203125,502.18035888671875,467.92279052734375,500.5189514160156,463.77789306640625,499.3966979980469C459.63299560546875,498.27447509765625,455.40106201171875,497.7115173339844,451.0846252441406,497.7115173339844C444.174560546875,497.7115173339844,437.80804443359375,498.87762451171875,431.98004150390625,501.2080078125C426.15087890625,503.54022216796875,421.09918212890625,506.80096435546875,416.8249816894531,510.98651123046875C412.55078125,515.1757202148438,409.2046203613281,520.117919921875,406.78765869140625,525.81689453125C404.3681640625,531.5158081054688,403.1602478027344,537.7319946289062,403.1602478027344,544.4672241210938C403.1602478027344,551.3761596679688,404.3046569824219,557.7001953125,406.5923156738281,563.441162109375C408.8799743652344,569.1839599609375,412.1404724121094,574.1481323242188,416.3721618652344,578.3336791992188C420.601806640625,582.5228881835938,425.5885925292969,585.7616577148438,431.33209228515625,588.0499877929688C437.073974609375,590.334716796875,443.3548278808594,591.480712890625,450.1778259277344,591.480712890625C454.5813293457031,591.480712890625,458.9626770019531,590.939697265625,463.32391357421875,589.861328125C467.68402099609375,588.782958984375,471.6557312011719,587.2933349609375,475.2408752441406,585.394287109375C478.823486328125,583.4952392578125,481.6944274902344,581.336669921875,483.85394287109375,578.9185791015625L473.23309326171875,562.081298828125C471.59130859375,563.8085327148438,469.71282958984375,565.3402099609375,467.5992736816406,566.6781005859375C465.48089599609375,568.017822265625,463.1733703613281,569.0742797851562,460.6693420410156,569.85107421875C458.1639404296875,570.6278686523438,455.5306091308594,571.0172119140625,452.7677307128906,571.0172119140625C448.7087707519531,571.0172119140625,445.0166931152344,570.4140014648438,441.6940612792969,569.2040405273438C438.3677978515625,567.9959106445312,435.5414123535156,566.2247924804688,433.2103271484375,563.8944091796875C430.8792724609375,561.5621948242188,429.0654602050781,558.778564453125,427.7704772949219,555.539794921875C426.474365234375,552.3027954101562,425.82757568359375,548.698486328125,425.82757568359375,544.726806640625C425.82757568359375,540.669189453125,426.474365234375,536.9990234375,427.7704772949219,533.7164306640625C429.0654602050781,530.4374389648438,430.85687255859375,527.6519165039062,433.14569091796875,525.3635864257812" style="fill-rule: nonzero; clip-rule: evenodd; stroke-linejoin: round; stroke-miterlimit: 2;"/></g></g><g id="shape-fdf5c15b-49e5-807c-8007-13eb8185ecbe"><g class="fills" id="fills-fdf5c15b-49e5-807c-8007-13eb8185ecbe"><path d="M537.86376953125,562.4706420898438C537.86376953125,564.1978149414062,537.5603637695312,565.7733764648438,536.9569702148438,567.1972045898438C536.3524780273438,568.622802734375,535.5103149414062,569.8748168945312,534.4317016601562,570.9531860351562C533.350830078125,572.0333862304688,532.055908203125,572.8760375976562,530.5457153320312,573.4791870117188C529.0341796875,574.0841674804688,527.3722534179688,574.3857421875,525.5587158203125,574.3857421875C523.1403198242188,574.3857421875,521.068115234375,573.8465576171875,519.342529296875,572.766357421875C517.6148071289062,571.68798828125,516.3187255859375,570.1563110351562,515.4564819335938,568.167724609375C514.5919189453125,566.1828002929688,514.1614990234375,563.8103637695312,514.1614990234375,561.0449829101562L514.1614990234375,521.413818359375L493.3079833984375,521.413818359375L493.3079833984375,563.8944091796875C493.3079833984375,569.6810913085938,494.2794189453125,574.645263671875,496.2225646972656,578.7887573242188C498.1656799316406,582.9323120117188,500.9285583496094,586.1071166992188,504.5123291015625,588.3077392578125C508.094970703125,590.5101928710938,512.4324340820312,591.6104736328125,517.5289306640625,591.6104736328125C521.327880859375,591.6104736328125,524.9116821289062,590.853759765625,528.279052734375,589.3458862304688C531.646484375,587.8343505859375,534.5386352539062,585.8055419921875,536.9569702148438,583.2557983398438C537.5439453125,582.639892578125,538.0861206054688,581.998291015625,538.590576171875,581.336669921875L539.1587524414062,590.1866455078125L558.71728515625,590.1866455078125L558.71728515625,521.413818359375L537.86376953125,521.413818359375L537.86376953125,562.4706420898438Z" style="fill-rule: nonzero; clip-rule: evenodd; stroke-linejoin: round; stroke-miterlimit: 2;"/></g></g><g id="shape-fdf5c15b-49e5-807c-8007-13eb8185ecbf"><g class="fills" id="fills-fdf5c15b-49e5-807c-8007-13eb8185ecbf"><path d="M624.0631103515625,565.384033203125C622.8092651367188,568.1055908203125,621.0189819335938,570.2421875,618.6879272460938,571.7957763671875C616.35546875,573.3494262695312,613.63623046875,574.126220703125,610.5277099609375,574.126220703125C607.3320922851562,574.126220703125,604.5703735351562,573.3494262695312,602.2379150390625,571.7957763671875C599.9068603515625,570.2421875,598.09326171875,568.1055908203125,596.7982788085938,565.384033203125C595.5033569335938,562.6643676757812,594.8551635742188,559.4493408203125,594.8551635742188,555.7353515625C594.8551635742188,552.1090698242188,595.5033569335938,548.916015625,596.7982788085938,546.1524658203125C598.09326171875,543.3888549804688,599.9068603515625,541.274169921875,602.2379150390625,539.8046264648438C604.5703735351562,538.3369750976562,607.3320922851562,537.6022338867188,610.5277099609375,537.6022338867188C613.63623046875,537.6022338867188,616.35546875,538.3369750976562,618.6879272460938,539.8046264648438C621.0189819335938,541.274169921875,622.8092651367188,543.3888549804688,624.0631103515625,546.1524658203125C625.3132934570312,548.916015625,625.9413452148438,552.1090698242188,625.9413452148438,555.7353515625C625.9413452148438,559.4493408203125,625.3132934570312,562.6643676757812,624.0631103515625,565.384033203125M631.3165283203125,524.5867919921875C626.6953125,521.5234985351562,621.4083251953125,519.989990234375,615.4500732421875,519.989990234375C612.6001586914062,519.989990234375,609.8361206054688,520.4231567382812,607.1602783203125,521.2840576171875C604.482177734375,522.1485595703125,602.0215454101562,523.3366088867188,599.7775268554688,524.8463134765625C598.1448974609375,525.94482421875,596.7240600585938,527.1602783203125,595.5033569335938,528.4872436523438L595.5033569335938,494.34661865234375L574.6498413085938,494.34661865234375L574.6498413085938,590.056884765625L593.9483642578125,590.056884765625L594.4859619140625,582.7111206054688C595.8407592773438,584.2391357421875,597.4439697265625,585.6154174804688,599.3235473632812,586.818115234375C601.6110229492188,588.28759765625,604.1810302734375,589.4537353515625,607.0309448242188,590.31640625C609.8795166015625,591.1773071289062,612.8587646484375,591.6123046875,615.967529296875,591.6123046875C621.751953125,591.6123046875,626.9329223632812,590.0787963867188,631.510498046875,587.013671875C636.0858154296875,583.9485473632812,639.6908569335938,579.71728515625,642.3255615234375,574.3199462890625C644.9589233398438,568.9262084960938,646.2762451171875,562.7283325195312,646.2762451171875,555.7353515625C646.2762451171875,548.8282470703125,644.9365234375,542.676025390625,642.2609252929688,537.2786865234375C639.5839233398438,531.885009765625,635.9341430664062,527.6537475585938,631.3165283203125,524.5867919921875" style="fill-rule: nonzero; clip-rule: evenodd; stroke-linejoin: round; stroke-miterlimit: 2;"/></g></g><g id="shape-fdf5c15b-49e5-807c-8007-13eb8185ecc0"><g class="fills" id="fills-fdf5c15b-49e5-807c-8007-13eb8185ecc0"><path d="M673.7350463867188,545.1800537109375C674.9431762695312,542.6322021484375,676.734375,540.6911010742188,679.1102294921875,539.3495483398438C681.4837646484375,538.013427734375,684.3560791015625,537.344482421875,687.7232666015625,537.344482421875C690.1405029296875,537.344482421875,692.2999877929688,537.8197021484375,694.2006225585938,538.768310546875C696.0978393554688,539.7205810546875,697.6326904296875,541.0347290039062,698.798095703125,542.7180786132812C699.9637451171875,544.4014282226562,700.6317749023438,546.32421875,700.805908203125,548.4810180664062L700.805908203125,548.6107788085938L672.5838012695312,548.6107788085938C672.8753051757812,547.3788452148438,673.2410888671875,546.21826171875,673.7350463867188,545.1800537109375M719.9739990234375,554.6990356445312C720.1469116210938,549.6928100585938,719.4564819335938,545.072265625,717.9026489257812,540.8410034179688C716.3490600585938,536.611572265625,714.1025390625,532.9396362304688,711.1669311523438,529.8306274414062C708.22998046875,526.7234497070312,704.7567749023438,524.30712890625,700.7400512695312,522.578125C696.7258911132812,520.8527221679688,692.2999877929688,519.9881591796875,687.4646606445312,519.9881591796875C682.3682250976562,519.9881591796875,677.6859741210938,520.8746337890625,673.4117431640625,522.64208984375C669.1375732421875,524.4131469726562,665.4454956054688,526.9171752929688,662.3369140625,530.1559448242188C659.2281494140625,533.3928833007812,656.81005859375,537.212890625,655.083251953125,541.615966796875C653.3555908203125,546.0208129882812,652.4935913085938,550.8570556640625,652.4935913085938,556.122802734375C652.4935913085938,562.94580078125,654.04833984375,569.0103149414062,657.1559448242188,574.3199462890625C660.2645263671875,579.6314086914062,664.6234741210938,583.8187866210938,670.238525390625,586.882080078125C675.8499755859375,589.9490356445312,682.4566040039062,591.480712890625,690.0545654296875,591.480712890625C693.1644897460938,591.480712890625,696.2918090820312,591.1133422851562,699.4451293945312,590.38037109375C702.59619140625,589.6474609375,705.6823120117188,588.5471801757812,708.7063598632812,587.07763671875C711.7278442382812,585.6099853515625,714.5777587890625,583.7109375,717.2547607421875,581.3787231445312L707.5407104492188,567.6504516601562C704.862548828125,569.7213134765625,702.3795776367188,571.1907958984375,700.0930786132812,572.0535278320312C697.8042602539062,572.9180297851562,695.192138671875,573.3494262695312,692.25634765625,573.3494262695312C688.0257568359375,573.3494262695312,684.3759765625,572.5725708007812,681.31201171875,571.0172119140625C678.2459106445312,569.463623046875,675.9146118164062,567.2830810546875,674.3185424804688,564.4756469726562C673.5810546875,563.1834106445312,673.0341186523438,561.7723999023438,672.6365356445312,560.2681884765625L719.8458251953125,560.2681884765625L719.9739990234375,554.6990356445312Z" style="fill-rule: nonzero; clip-rule: evenodd; stroke-linejoin: round; stroke-miterlimit: 2;"/></g></g></g><g id="shape-fdf5c15b-49e5-807c-8007-13eb8185ecaf" rx="0" ry="0" style="fill: rgb(0, 0, 0);"><g id="shape-fdf5c15b-49e5-807c-8007-13eb8185ecc1"><g class="fills" id="fills-fdf5c15b-49e5-807c-8007-13eb8185ecc1"><path d="M331.2409362792969,460.4605407714844L267.6213073730469,460.4605407714844L470.35711669921875,135.93084716796875L532.7816162109375,135.93084716796875L331.2409362792969,460.4605407714844Z" style="fill-rule: evenodd; clip-rule: evenodd; stroke-linejoin: round; stroke-miterlimit: 2; fill: rgb(229, 85, 70);"/></g></g><g id="shape-fdf5c15b-49e5-807c-8007-13ec5a2cf7ab"><g class="fills" id="fills-fdf5c15b-49e5-807c-8007-13ec5a2cf7ab"><path d="M531.3469848632812,299.94805908203125L496.3895263671875,244.75283813476562L528.1920166015625,193.9264373779297L528.2088623046875,193.9264373779297L594.0507202148438,299.94464111328125L594.1981201171875,300.1840515136719L593.7848510742188,300.37493896484375L528.2088623046875,405.9662780761719L528.1920166015625,405.9662780761719L496.3895263671875,355.1432800292969L531.3469848632812,299.94805908203125" style="fill: rgb(229, 85, 70);"/></g></g><g id="shape-fdf5c15b-49e5-807c-8007-13eb8185ecc3"><g class="fills" id="fills-fdf5c15b-49e5-807c-8007-13eb8185ecc3"><path d="M268.35870361328125,299.94805908203125L303.31610107421875,244.75283813476562L271.513671875,193.9264373779297L271.496826171875,193.9264373779297L205.65542602539062,299.94464111328125L205.50758361816406,300.1840515136719L205.9208221435547,300.37493896484375L271.496826171875,405.9662780761719L303.31610107421875,355.1432800292969L268.35870361328125,299.94805908203125" style="fill: rgb(229, 85, 70);"/></g></g><g id="shape-fdf5c15b-49e5-807c-8007-13eb8185ecb0"><g class="fills" id="fills-fdf5c15b-49e5-807c-8007-13eb8185ecb0"><path d="M593.0318603515625,167.308837890625C592.0584106445312,165.1221160888672,590.7061157226562,163.2166748046875,588.97509765625,161.59703063964844C587.242919921875,159.97743225097656,585.269287109375,158.71165466308594,583.05322265625,157.79067993164062C581.5620727539062,157.1736602783203,579.9920043945312,156.78350830078125,578.3560791015625,156.58163452148438L592.8697509765625,141.0227508544922L590.3551635742188,136.00051879882812L555.4673461914062,136.00051879882812L555.4673461914062,147.5829315185547L573.666259765625,147.9571990966797L561.6333618164062,161.03219604492188L564.6361083984375,169.0509490966797C565.716552734375,168.5111083984375,566.7704467773438,168.0778350830078,567.7998046875,167.75343322753906C568.8274536132812,167.43133544921875,569.7994995117188,167.1750030517578,570.720458984375,166.9844512939453C571.6401977539062,166.79617309570312,572.5054931640625,166.700927734375,573.3170776367188,166.700927734375C575.101806640625,166.700927734375,576.6295166015625,167.00038146972656,577.9013671875,167.59237670898438C579.170166015625,168.18670654296875,580.1439208984375,169.06455993652344,580.8223266601562,170.22598266601562C581.4961547851562,171.3874053955078,581.8352661132812,172.8051300048828,581.8352661132812,174.4769287109375C581.8352661132812,176.04441833496094,581.4419555664062,177.4485321044922,580.659912109375,178.69161987304688C579.8749389648438,179.9324188232422,578.845947265625,180.89195251464844,577.5768432617188,181.5679473876953C576.3035278320312,182.24163818359375,574.9118041992188,182.57736206054688,573.3973999023438,182.57736206054688C571.8826293945312,182.57736206054688,570.43701171875,182.32330322265625,569.0569458007812,181.80836486816406C567.6785278320312,181.29571533203125,566.3524169921875,180.47232055664062,565.0819091796875,179.3403778076172C563.810302734375,178.20391845703125,562.5792846679688,176.69317626953125,561.390869140625,174.8035888671875L551.4923095703125,181.20272827148438C554.3035888671875,185.90057373046875,557.4275512695312,189.21014404296875,560.8629760742188,191.12466430664062C564.2970581054688,193.04144287109375,568.3128662109375,194.00099182128906,572.910400390625,194.00099182128906C576.9132080078125,194.00099182128906,580.5502319335938,193.13673400878906,583.8236083984375,191.40821838378906C587.09521484375,189.68194580078125,589.6915283203125,187.34552001953125,591.6126098632812,184.4011688232422C593.5319213867188,181.45904541015625,594.4923095703125,178.09730529785156,594.4923095703125,174.31591796875C594.4923095703125,171.83201599121094,594.005615234375,169.49559020996094,593.0318603515625,167.308837890625" style="fill-rule: nonzero; clip-rule: evenodd; stroke-linejoin: round; stroke-miterlimit: 2; fill: rgb(229, 85, 70);"/></g></g></g></g></g></svg>